<svg xmlns="http://www.w3.org/2000/svg" width="160" height="160" viewBox="0 0 160 160" version="1.1">
	<path d="M 0 80.006 L 0 160.012 80.250 159.756 L 160.500 159.500 160.756 79.750 L 161.012 0 80.506 0 L 0 0 0 80.006 M 0.477 80.500 C 0.477 124.500, 0.600 142.354, 0.750 120.176 C 0.900 97.997, 0.900 61.997, 0.750 40.176 C 0.599 18.354, 0.476 36.500, 0.477 80.500 M 71.388 13.007 C 58.501 14.781, 48.311 19.012, 38.639 26.603 C 8.746 50.065, 5.477 98.297, 31.975 124.912 C 39.758 132.729, 48.546 138.081, 59.500 141.677 C 66.168 143.866, 69.414 144.315, 79 144.376 C 93.004 144.465, 98.694 143.189, 111 137.200 C 133.177 126.406, 145.928 105.264, 145.983 79.197 C 146.048 48.053, 125.510 21.064, 96.801 14.569 C 88.066 12.593, 78.613 12.012, 71.388 13.007 M 70.500 15.698 C 50.876 18.300, 32.443 31.874, 23.592 50.238 C 21.137 55.332, 18.593 62.304, 17.938 65.732 C 16.209 74.776, 17.219 92.983, 19.857 100.336 C 21.967 106.216, 27.911 117.423, 28.570 116.764 C 28.765 116.568, 27.597 112.154, 25.974 106.954 C 24.350 101.754, 23.017 97.136, 23.011 96.691 C 22.989 95.058, 25.271 97.357, 28.098 101.815 C 30.617 105.788, 31.005 106.069, 31.036 103.946 L 31.072 101.500 33.574 104.500 L 36.077 107.500 35.788 103.061 C 35.525 99.006, 35.154 98.443, 31.512 96.558 C 27.119 94.286, 21.929 85.809, 24.551 85.190 C 26.843 84.648, 32.016 87.979, 34.040 91.299 L 35.993 94.500 35.996 88.750 C 35.999 84.500, 35.637 83, 34.607 83 C 33.841 83, 32.943 82.294, 32.612 81.431 C 32.211 80.387, 31.338 80.075, 30 80.500 C 27.521 81.287, 26.215 78.651, 28.011 76.487 C 29.018 75.273, 28.941 75, 27.591 75 C 25.025 75, 24.506 72.109, 26.704 70.061 C 28.150 68.714, 29.123 68.490, 30.408 69.208 C 32.674 70.477, 33.636 69.472, 32.020 67.524 C 30.488 65.678, 28.372 65.546, 27.601 67.250 C 27.290 67.938, 27.158 67.600, 27.309 66.500 C 27.495 65.134, 28.247 64.569, 29.682 64.719 C 31.044 64.861, 31.964 64.246, 32.298 62.969 C 32.919 60.595, 35.543 60.367, 36.405 62.613 C 36.897 63.896, 37.319 63.980, 38.468 63.027 C 40.280 61.523, 42 62.513, 42 65.059 C 42 66.333, 42.687 67, 44 67 C 45.333 67, 46 67.667, 46 69 C 46 70.100, 45.550 71, 45 71 C 44.450 71, 44.112 70.494, 44.250 69.875 C 44.650 68.074, 42.588 67.845, 40.460 69.455 C 38.546 70.901, 38.555 70.937, 40.821 70.968 C 43.505 71.005, 46 73.154, 46 75.429 C 46 76.308, 45.160 77, 44.094 77 C 42.718 77, 42.325 77.525, 42.681 78.887 C 43.325 81.351, 41.565 82.373, 39.021 81.011 C 37.094 79.980, 37 80.218, 37 86.111 L 37 92.292 39.344 89.763 C 41.678 87.244, 45.692 85.358, 46.659 86.326 C 47.458 87.125, 43.235 96, 42.056 96 C 39.476 96, 37.001 100.073, 37.042 104.250 L 37.084 108.500 39 105 C 40.792 101.727, 40.919 101.662, 40.966 104 C 41.004 105.905, 41.787 104.970, 44.258 100.071 C 46.041 96.535, 48.134 93.436, 48.909 93.185 C 49.899 92.863, 50.122 93.241, 49.657 94.451 C 49.293 95.399, 48.725 98.048, 48.394 100.337 L 47.793 104.500 50.432 100.750 C 53.378 96.565, 55.421 95.733, 54.115 99.250 C 53.656 100.487, 52.970 103.300, 52.591 105.500 L 51.903 109.500 53.870 106.359 C 57.113 101.182, 58.329 101.095, 57.483 106.101 C 56.816 110.049, 56.899 110.329, 58.374 109.105 C 59.777 107.940, 60.002 108.012, 60.015 109.628 C 60.028 111.202, 60.185 111.262, 61 110 C 62.551 107.600, 62.197 98.875, 60.472 96.969 C 59.631 96.040, 58.604 93.305, 58.190 90.890 C 57.491 86.826, 57.230 86.524, 54.665 86.829 C 51.066 87.255, 49 85.462, 49 81.913 C 49 78.900, 51.280 77, 54.896 77 C 56.415 77, 57.193 75.997, 58.001 72.997 C 59.136 68.782, 62.927 65.374, 65.419 66.331 C 66.208 66.633, 67.424 66.195, 68.120 65.355 C 68.925 64.385, 70.471 63.989, 72.364 64.267 C 74.002 64.507, 76.467 64.121, 77.841 63.408 C 79.753 62.415, 80.827 62.380, 82.420 63.255 C 83.564 63.884, 85.536 64.274, 86.803 64.121 C 89.760 63.764, 91.713 65.416, 92.484 68.926 C 93.366 72.942, 96.832 74.541, 101.394 73.035 C 105.003 71.844, 105.876 70.660, 104 69.500 C 101.713 68.086, 103.452 66.252, 111.257 61.848 C 121.076 56.306, 125.955 54.735, 131.991 55.174 C 135.424 55.423, 136.566 55.938, 136.836 57.359 C 137.467 60.686, 133.986 67.762, 129.651 71.964 C 125.221 76.256, 114.392 84, 112.819 84 C 112.317 84, 111.140 82.653, 110.203 81.006 C 108.362 77.770, 106.266 77.314, 101.254 79.061 C 98.647 79.970, 98.112 80.768, 97.536 84.609 C 96.992 88.238, 95.826 90.167, 91.432 94.703 C 86.837 99.447, 86.011 100.865, 86.070 103.906 C 86.109 105.883, 86.496 108.400, 86.931 109.500 C 87.573 111.123, 87.859 110.699, 88.449 107.250 C 89.111 103.378, 90.945 101.254, 91.039 104.250 C 91.061 104.938, 91.831 103.925, 92.752 102 L 94.426 98.500 95.040 105 C 95.378 108.575, 95.732 110.465, 95.827 109.200 C 96.073 105.926, 98.612 101.385, 101.217 99.561 C 102.442 98.702, 105.343 98, 107.663 98 C 114.173 98, 113.715 96.279, 106.998 95.500 C 103.699 95.117, 101 94.391, 101 93.887 C 101 93.383, 102.253 92.190, 103.783 91.235 C 105.496 90.167, 106.429 88.827, 106.210 87.750 C 105.669 85.097, 109.628 85.537, 112.545 88.455 C 114.758 90.667, 115 90.722, 115 89.014 C 115 86.204, 117.042 85.446, 117.712 88.007 C 118.256 90.087, 118.364 90.038, 119.570 87.171 C 120.521 84.910, 121.902 83.810, 124.932 82.902 C 127.176 82.230, 129.308 81.975, 129.669 82.336 C 130.030 82.697, 129.465 84.789, 128.413 86.985 C 126.788 90.377, 126.030 90.979, 123.372 90.989 C 121.652 90.995, 119.722 91.630, 119.082 92.401 C 118.121 93.559, 118.783 93.920, 122.910 94.488 C 129.527 95.398, 130.665 96.839, 129.041 102.258 L 127.784 106.452 125.892 104.115 C 124.851 102.830, 124 102.108, 124 102.512 C 124 102.915, 123.302 102.666, 122.450 101.958 C 121.597 101.251, 121.035 99.548, 121.200 98.173 C 121.560 95.175, 120.113 94.465, 117.515 96.365 C 115.684 97.704, 115.728 97.867, 118.680 100.629 C 122.319 104.033, 123.988 107.014, 124.032 110.184 C 124.063 112.436, 124.104 112.446, 125.532 110.559 C 126.522 109.249, 127 109.070, 127 110.009 C 127 112.317, 128.657 109.828, 130 105.500 C 131.425 100.911, 134.783 95, 135.964 95 C 136.682 95, 133.348 110.497, 131.554 115.500 L 130.837 117.500 132.471 115.500 C 135.222 112.133, 139.873 101.826, 141.478 95.540 C 143.444 87.840, 143.450 71.198, 141.490 63.460 C 140.660 60.182, 138.120 53.701, 135.847 49.058 C 124.413 25.707, 97.731 12.086, 70.500 15.698 M 71 20.500 C 71 21.333, 71.889 22, 73 22 C 74.733 22, 75 22.667, 75 27 C 75 30.778, 75.367 32, 76.500 32 C 77.633 32, 78 30.778, 78 27 C 78 23.222, 78.367 22, 79.500 22 C 80.325 22, 81 21.325, 81 20.500 C 81 19.367, 79.778 19, 76 19 C 72.222 19, 71 19.367, 71 20.500 M 88.683 21.250 C 89.132 22.488, 89.497 25.637, 89.493 28.250 C 89.484 33.602, 91.181 34.607, 92.871 30.250 C 93.457 28.738, 95.134 26.038, 96.597 24.250 C 99.093 21.199, 99.132 21, 97.235 21 C 96.124 21, 94.955 21.675, 94.638 22.500 C 93.820 24.631, 92 24.360, 92 22.107 C 92 21.066, 91.288 19.941, 90.418 19.607 C 87.978 18.670, 87.805 18.834, 88.683 21.250 M 65.669 23.250 L 66.288 26.500 63.830 24.250 C 60.810 21.487, 57.468 21.175, 58.461 23.750 C 58.832 24.712, 59.648 27.413, 60.275 29.750 C 61.660 34.915, 64.619 35.845, 63.610 30.798 L 62.969 27.596 65.745 30.255 C 68.560 32.953, 71.547 32.746, 70.583 29.920 C 70.317 29.139, 69.609 26.587, 69.011 24.250 C 67.675 19.030, 64.695 18.139, 65.669 23.250 M 99.128 27.963 C 94.454 33.506, 94.113 34.465, 97.096 33.685 C 99.743 32.993, 102 33.829, 102 35.500 C 102 36.207, 102.651 37.036, 103.447 37.341 C 104.538 37.760, 105.042 36.742, 105.499 33.198 C 105.832 30.614, 106.265 27.707, 106.462 26.737 C 106.659 25.767, 106.018 24.545, 105.038 24.020 C 103.587 23.244, 102.491 23.975, 99.128 27.963 M 50.214 26.318 C 46.975 27.763, 46.304 31.589, 48.720 34.837 C 51.146 38.098, 54.525 38.740, 57.082 36.425 C 59.382 34.345, 59.476 32.822, 57.540 29.077 C 55.850 25.808, 53.413 24.890, 50.214 26.318 M 50.392 29.422 C 49.667 31.311, 51.706 35, 53.476 35 C 55.805 35, 56.269 33.060, 54.563 30.456 C 52.753 27.693, 51.202 27.309, 50.392 29.422 M 101.201 29.255 C 100.269 30.380, 100.218 31.016, 101.018 31.511 C 102.498 32.426, 103.255 31.558, 102.838 29.423 C 102.534 27.860, 102.371 27.844, 101.201 29.255 M 109.730 33.951 C 107.423 37.041, 106.436 39.151, 107.104 39.564 C 107.693 39.928, 108.675 39.725, 109.287 39.113 C 111.135 37.265, 112.092 37.851, 111.788 40.645 C 111.630 42.100, 112.063 43.487, 112.750 43.728 C 113.438 43.969, 114 43.465, 114 42.606 C 114 41.748, 115.125 40.309, 116.500 39.408 C 119.640 37.351, 119.715 34.020, 116.686 31.174 C 115.413 29.978, 114.159 29, 113.899 29 C 113.639 29, 111.763 31.228, 109.730 33.951 M 38.196 35.291 L 35.959 37.673 39.695 42.280 C 42.589 45.850, 43.730 46.639, 44.758 45.786 C 45.678 45.022, 45.766 44.366, 45.042 43.642 C 43.189 41.789, 43.930 41.036, 47 41.650 C 50.346 42.319, 51.239 40.528, 48.062 39.520 C 46.903 39.152, 45.998 37.817, 45.812 36.202 C 45.384 32.491, 41.287 32.001, 38.196 35.291 M 113.500 34 C 113.101 34.646, 113.224 35.624, 113.774 36.174 C 114.441 36.841, 115.016 36.783, 115.500 36 C 115.899 35.354, 115.776 34.376, 115.226 33.826 C 114.559 33.159, 113.984 33.217, 113.500 34 M 40.736 36.598 C 40.407 36.927, 40.384 37.838, 40.686 38.623 C 41.104 39.713, 41.558 39.781, 42.606 38.912 C 43.360 38.286, 43.731 37.374, 43.430 36.887 C 42.797 35.863, 41.599 35.735, 40.736 36.598 M 75 47.124 L 75 58.248 80.650 57.779 C 84.603 57.451, 86.705 56.756, 87.650 55.464 C 89.422 53.040, 89.367 49.510, 87.528 47.671 C 86.232 46.375, 86.232 46.053, 87.528 44.977 C 89.703 43.171, 89.315 39.334, 86.777 37.557 C 85.519 36.675, 82.483 36, 79.777 36 L 75 36 75 47.124 M 64 37.913 C 61.525 38.620, 61.503 38.725, 61.775 48.505 C 61.926 53.938, 62.211 58.544, 62.408 58.741 C 62.605 58.938, 65.069 58.794, 67.883 58.421 C 71.974 57.878, 73 57.367, 73 55.871 C 73 54.399, 72.253 54, 69.500 54 C 66.667 54, 66 53.619, 66 52 C 66 50.533, 66.667 50, 68.500 50 C 70.528 50, 71 49.507, 71 47.392 C 71 45.139, 70.673 44.865, 68.604 45.384 C 66.944 45.801, 66.023 45.502, 65.604 44.411 C 64.724 42.116, 64.693 42.148, 68.500 41.434 C 71.033 40.959, 72 40.255, 72 38.889 C 72 36.866, 68.965 36.496, 64 37.913 M 92.664 38.750 C 92.414 39.163, 91.892 43.789, 91.503 49.032 L 90.795 58.563 95.897 59.608 C 99.995 60.448, 101 60.392, 101 59.327 C 101 58.597, 101.027 57.669, 101.061 57.265 C 101.095 56.860, 99.715 56.165, 97.996 55.719 C 93.898 54.657, 94.130 51.334, 98.269 51.822 C 101.840 52.242, 102.016 49.337, 98.500 48 C 97.125 47.477, 96 46.313, 96 45.413 C 96 44.085, 96.659 43.901, 99.500 44.434 C 102.521 45.001, 103 44.826, 103 43.154 C 103 40.543, 93.920 36.674, 92.664 38.750 M 119 41.902 L 114.500 45.799 116.924 48.399 C 118.258 49.830, 120.317 51, 121.500 51 C 124.136 51, 128 47.081, 128 44.408 C 128 42.367, 125.403 37.998, 124.193 38.003 C 123.812 38.004, 121.475 39.759, 119 41.902 M 31.107 42.850 L 29.077 45.700 31.789 48.150 C 36.395 52.313, 37.871 53.198, 39.021 52.487 C 39.782 52.017, 39.595 51.210, 38.427 49.919 C 37.023 48.368, 36.949 47.766, 38.004 46.495 C 39.768 44.370, 38.358 43.295, 35.857 44.857 C 33.507 46.325, 32.045 45.555, 33.817 43.783 C 35.226 42.374, 35.384 40, 34.068 40 C 33.556 40, 32.223 41.283, 31.107 42.850 M 79.170 42.170 C 79.596 45.181, 83.500 45.478, 83.500 42.500 C 83.500 41.167, 82.723 40.390, 81.170 40.170 C 79.231 39.895, 78.895 40.231, 79.170 42.170 M 50.091 44.674 C 45.589 47.358, 45.307 48.588, 46.644 59.713 C 47.208 64.411, 47.454 64.827, 49.135 63.928 C 50.298 63.305, 51 61.836, 51 60.024 C 51 56.135, 52.714 55.277, 54.156 58.444 C 55.384 61.138, 55.880 61.367, 58.393 60.403 C 59.802 59.862, 59.802 59.519, 58.396 56.800 C 57.128 54.346, 57.061 53.266, 58.034 50.917 C 59.534 47.297, 58.611 43.393, 56.102 42.737 C 55.045 42.461, 52.340 43.332, 50.091 44.674 M 121.025 44.474 C 118.951 46.681, 118.882 47.018, 120.387 47.595 C 122.480 48.398, 126.072 45.351, 125.326 43.406 C 124.565 41.424, 123.685 41.642, 121.025 44.474 M 105.945 43.742 C 105.916 44.159, 105.328 48.243, 104.639 52.818 C 103.529 60.191, 103.566 61.232, 104.960 61.979 C 105.910 62.487, 107.477 62.315, 108.917 61.544 C 111.025 60.416, 111.108 60.160, 109.638 59.337 C 108.201 58.533, 108.113 57.678, 108.987 53.067 C 109.544 50.130, 110 47.222, 110 46.604 C 110 45.349, 106.031 42.547, 105.945 43.742 M 51.250 47.662 C 49.894 48.210, 49.490 53, 50.800 53 C 52.213 53, 54 50.655, 54 48.800 C 54 46.971, 53.488 46.759, 51.250 47.662 M 79.558 48.775 C 79.251 49.082, 79 50.158, 79 51.167 C 79 52.456, 79.742 53, 81.500 53 C 83.282 53, 84 52.459, 84 51.117 C 84 49.322, 80.733 47.600, 79.558 48.775 M 33.490 63.172 C 33.136 64.091, 33.433 65.891, 34.151 67.172 L 35.456 69.500 35.794 67.279 C 35.980 66.057, 35.682 64.257, 35.133 63.279 C 34.215 61.644, 34.082 61.635, 33.490 63.172 M 37.954 66.086 C 37.340 67.233, 37.136 68.470, 37.501 68.834 C 38.179 69.512, 41 66.268, 41 64.809 C 41 63.220, 39.051 64.037, 37.954 66.086 M 77.238 65.162 C 75.883 66.517, 75.645 72.130, 76.636 79.360 C 77.118 82.878, 77.697 84, 79.029 84 C 81.416 84, 82.197 81.496, 81.422 76.326 C 80.970 73.313, 81.129 72, 81.947 72 C 82.692 72, 83.007 70.630, 82.810 68.250 C 82.573 65.383, 82.026 64.432, 80.488 64.212 C 79.382 64.053, 77.919 64.481, 77.238 65.162 M 69.580 66.318 C 67.865 67.572, 67.857 68.018, 69.413 75.542 C 71.114 83.763, 72.075 85.690, 73.913 84.554 C 75.307 83.692, 75.349 69.520, 73.965 66.934 C 72.743 64.652, 72.001 64.548, 69.580 66.318 M 86.250 65.718 C 85.563 65.965, 85 67.479, 85 69.083 C 85 71.657, 85.352 72, 88 72 C 90.522 72, 91 71.607, 91 69.535 C 91 66.987, 88.442 64.932, 86.250 65.718 M 60.526 70.950 C 59.687 72.573, 59 74.373, 59 74.950 C 59 76.695, 60.825 76.127, 61.250 74.250 C 61.500 73.143, 62.135 74.056, 62.976 76.734 C 64.289 80.912, 67.463 84.870, 68.593 83.740 C 69.107 83.226, 67.717 74.499, 66.364 69.750 C 65.576 66.983, 62.220 67.673, 60.526 70.950 M 26.543 71.931 C 26.226 72.443, 26.347 73.096, 26.810 73.383 C 27.990 74.112, 32 72.953, 32 71.883 C 32 70.705, 27.275 70.746, 26.543 71.931 M 40.441 74.532 C 42.608 76.171, 45 76.473, 45 75.107 C 45 74.052, 42.521 72.987, 40.168 73.032 C 38.729 73.059, 38.767 73.265, 40.441 74.532 M 82.461 74.063 C 81.346 75.868, 85.104 78.999, 88.405 79.015 C 90.418 79.025, 91.046 79.319, 90.200 79.855 C 89.485 80.309, 88.827 81.652, 88.737 82.840 C 88.622 84.362, 88.085 84.844, 86.919 84.474 C 84.415 83.680, 80.103 85.678, 76.883 89.126 C 73.892 92.327, 72.894 91.844, 75.468 88.441 C 76.276 87.374, 76.951 86.275, 76.968 86 C 77.012 85.315, 60.018 85.649, 59.319 86.347 C 58.013 87.653, 60.304 94.150, 63.033 96.879 C 64.660 98.506, 65.595 99.986, 65.111 100.168 C 64.627 100.351, 63.898 103.414, 63.491 106.976 C 62.816 112.884, 62.894 113.333, 64.376 112.103 C 65.820 110.904, 66.001 111.129, 66.005 114.128 L 66.010 117.500 68.469 114.500 L 70.928 111.500 70.964 114.250 C 71.007 117.498, 72.036 117.774, 73.768 115 C 75.530 112.178, 76.999 112.518, 77.005 115.750 L 77.010 118.500 79.428 115.500 C 81.599 112.807, 81.919 112.687, 82.562 114.334 C 83.867 117.675, 84.968 113.927, 84.985 106.090 L 85 98.681 90.500 92.915 C 95.802 87.356, 96 86.950, 96 81.646 C 96 74.630, 94.489 73, 87.988 73 C 85.309 73, 82.822 73.478, 82.461 74.063 M 30.069 76.151 C 28.447 77.661, 28.078 78.526, 28.931 78.810 C 30.508 79.336, 33.366 76.598, 32.852 75.055 C 32.618 74.353, 31.544 74.777, 30.069 76.151 M 34.667 75.667 C 33.613 76.720, 33.891 82, 35 82 C 35.550 82, 36 80.425, 36 78.500 C 36 74.903, 35.818 74.516, 34.667 75.667 M 37.878 77.199 C 38.814 79.729, 41 80.839, 41 78.783 C 41 77.291, 39.082 75, 37.832 75 C 37.410 75, 37.430 75.989, 37.878 77.199 M 129 132.067 C 129 132.714, 128.128 132.858, 126.789 132.433 C 124.672 131.761, 124.643 131.830, 126.124 134.061 C 126.975 135.342, 128.308 136.601, 129.086 136.858 C 130.298 137.258, 130.296 137.078, 129.075 135.600 C 127.768 134.016, 127.891 133.933, 130.575 134.587 L 133.500 135.299 131.595 133.150 C 129.446 130.725, 129 130.539, 129 132.067 M 31.500 135 C 29.442 137.274, 31.086 137.772, 33.310 135.548 C 34.108 134.749, 35.040 134.374, 35.381 134.714 C 35.721 135.055, 36 134.808, 36 134.167 C 36 132.335, 33.491 132.800, 31.500 135 M 37 136.031 C 37 136.564, 37.450 137, 38 137 C 38.550 137, 39 137.505, 39 138.122 C 39 138.948, 38.645 138.950, 37.658 138.131 C 36.312 137.014, 35 137.555, 35 139.226 C 35 139.716, 35.450 139.840, 36 139.500 C 36.550 139.160, 37 139.616, 37 140.512 C 37 141.962, 37.167 141.976, 38.500 140.643 C 39.325 139.818, 40 138.484, 40 137.678 C 40 136.873, 39.325 135.955, 38.500 135.638 C 37.675 135.322, 37 135.499, 37 136.031 M 122.214 137.195 C 124.174 140.148, 125.985 140.659, 125.308 138.068 C 125.013 136.943, 124.374 136.269, 123.886 136.570 C 123.399 136.872, 123 136.641, 123 136.059 C 123 135.477, 122.495 135, 121.878 135 C 121.151 135, 121.269 135.772, 122.214 137.195 M 117.336 138.567 C 117.005 139.429, 117.310 140.667, 118.014 141.317 C 119.026 142.252, 119.165 142.133, 118.679 140.750 C 118.266 139.578, 118.568 139, 119.590 139 C 120.431 139, 120.840 138.550, 120.500 138 C 119.579 136.510, 118.018 136.790, 117.336 138.567 M 41 139.969 C 41 140.501, 41.675 140.678, 42.500 140.362 C 43.435 140.003, 44 140.369, 44 141.334 C 44 143.704, 42.254 144.254, 41.025 142.271 C 40.012 140.638, 39.950 140.656, 40.227 142.500 C 40.708 145.704, 44.431 145.096, 44.816 141.750 C 45.071 139.535, 44.731 139, 43.066 139 C 41.930 139, 41 139.436, 41 139.969 M 121.116 140.167 C 121.052 141.083, 120.438 142.034, 119.750 142.280 C 119.063 142.525, 118.738 142.988, 119.029 143.309 C 120.094 144.482, 122.183 142.205, 121.714 140.380 C 121.327 138.869, 121.209 138.827, 121.116 140.167 M 46.175 143.516 C 45.487 145.024, 45.131 146.464, 45.382 146.715 C 46.060 147.394, 48.186 143.059, 47.777 141.831 C 47.583 141.249, 46.862 142.007, 46.175 143.516 M 112.182 143.500 C 112.808 144.875, 113.725 146, 114.220 146 C 114.714 146, 114.840 145.550, 114.500 145 C 114.160 144.450, 114.359 144, 114.941 144 C 115.523 144, 115.993 143.213, 115.985 142.250 C 115.971 140.740, 115.824 140.706, 114.909 142 C 114.110 143.129, 113.722 143.191, 113.341 142.250 C 113.062 141.563, 112.430 141, 111.938 141 C 111.446 141, 111.555 142.125, 112.182 143.500 M 49.250 143.662 C 48.563 143.940, 48.007 144.917, 48.015 145.833 C 48.029 147.286, 48.169 147.308, 49.110 146 C 50.020 144.734, 50.101 144.773, 49.626 146.250 C 48.763 148.932, 50.530 148.328, 51.818 145.500 C 52.988 142.933, 52.292 142.435, 49.250 143.662 M 107 145.441 C 107 146.784, 107.450 148.160, 108 148.500 C 108.550 148.840, 109 148.593, 109 147.952 C 109 147.311, 109.675 147.045, 110.500 147.362 C 112.565 148.154, 112.383 146.657, 110.171 144.655 C 107.682 142.402, 107 142.571, 107 145.441 M 56 145.786 C 56 146.218, 56.900 146.571, 58 146.571 C 59.100 146.571, 60 146.218, 60 145.786 C 60 145.354, 59.100 145, 58 145 C 56.900 145, 56 145.354, 56 145.786 M 101.184 147.750 C 101.410 149.721, 102.063 150.500, 103.486 150.500 C 104.583 150.500, 105.624 149.716, 105.810 148.750 C 106.032 147.596, 105.525 147.005, 104.323 147.015 C 102.919 147.027, 102.812 147.228, 103.857 147.890 C 104.809 148.494, 104.882 148.955, 104.100 149.438 C 103.487 149.817, 102.698 149.378, 102.347 148.462 C 101.983 147.513, 102.308 146.418, 103.104 145.914 C 104.210 145.214, 104.123 145.027, 102.684 145.015 C 101.289 145.004, 100.941 145.639, 101.184 147.750 M 61.607 147.582 C 61.273 148.452, 61.007 149.914, 61.015 150.832 C 61.027 152.127, 61.220 152.202, 61.876 151.166 C 62.540 150.118, 62.882 150.225, 63.468 151.666 C 64.176 153.404, 64.258 153.396, 65.037 151.500 C 66.205 148.659, 66.170 147, 64.941 147 C 64.359 147, 64.160 147.450, 64.500 148 C 64.840 148.550, 64.593 149, 63.952 149 C 63.311 149, 63.045 148.325, 63.362 147.500 C 63.678 146.675, 63.549 146, 63.076 146 C 62.602 146, 61.941 146.712, 61.607 147.582 M 55.079 148.583 C 55.127 149.748, 55.364 149.985, 55.683 149.188 C 55.972 148.466, 55.936 147.603, 55.604 147.271 C 55.272 146.939, 55.036 147.529, 55.079 148.583 M 67.607 150.085 C 66.185 152.937, 66.192 153.140, 67.699 152.562 C 68.602 152.216, 69.707 152.510, 70.155 153.216 C 70.673 154.034, 70.975 153.341, 70.985 151.309 C 71.006 146.918, 69.466 146.360, 67.607 150.085 M 91.362 148.500 C 90.515 150.706, 91.687 153, 93.660 153 C 95.193 153, 95.169 152.835, 93.441 151.500 C 91.520 150.015, 91.520 149.985, 93.441 148.500 C 95.169 147.165, 95.193 147, 93.660 147 C 92.712 147, 91.678 147.675, 91.362 148.500 M 58.500 149 C 58.840 149.550, 59.316 150, 59.559 150 C 59.802 150, 60 149.550, 60 149 C 60 148.450, 59.523 148, 58.941 148 C 58.359 148, 58.160 148.450, 58.500 149 M 74.813 148.683 C 75.534 148.972, 76.397 148.936, 76.729 148.604 C 77.061 148.272, 76.471 148.036, 75.417 148.079 C 74.252 148.127, 74.015 148.364, 74.813 148.683 M 87.150 151 C 88.413 154.623, 89.416 154.956, 88.762 151.535 C 88.503 150.179, 88.788 148.865, 89.395 148.614 C 90.003 148.363, 89.511 148.122, 88.302 148.079 C 86.288 148.007, 86.192 148.251, 87.150 151 M 95.158 150 C 95.158 151.375, 95.385 151.938, 95.662 151.250 C 95.940 150.563, 95.940 149.438, 95.662 148.750 C 95.385 148.063, 95.158 148.625, 95.158 150 M 73 150 C 73 150.550, 73.477 151, 74.059 151 C 74.641 151, 74.840 150.550, 74.500 150 C 74.160 149.450, 73.684 149, 73.441 149 C 73.198 149, 73 149.450, 73 150 M 78 150 C 78 150.550, 78.477 151, 79.059 151 C 79.641 151, 79.840 150.550, 79.500 150 C 79.160 149.450, 78.684 149, 78.441 149 C 78.198 149, 78 149.450, 78 150 M 56.813 150.683 C 57.534 150.972, 58.397 150.936, 58.729 150.604 C 59.061 150.272, 58.471 150.036, 57.417 150.079 C 56.252 150.127, 56.015 150.364, 56.813 150.683 M 75.500 152 C 75.840 152.550, 76.316 153, 76.559 153 C 76.802 153, 77 152.550, 77 152 C 77 151.450, 76.523 151, 75.941 151 C 75.359 151, 75.160 151.450, 75.500 152 M 80.453 151.924 C 80.767 152.433, 80.231 153.055, 79.262 153.308 C 77.921 153.658, 78.038 153.796, 79.750 153.884 C 81.135 153.955, 82 153.423, 82 152.500 C 82 151.675, 81.523 151, 80.941 151 C 80.359 151, 80.139 151.416, 80.453 151.924 M 73 153.031 C 73 153.564, 73.675 154, 74.500 154 C 75.325 154, 76 153.823, 76 153.607 C 76 153.391, 75.325 152.955, 74.500 152.638 C 73.675 152.322, 73 152.499, 73 153.031" stroke="none" fill="#111111" fill-rule="evenodd"/>
</svg>